# xmcd
# 
# Track frame offsets:
#     182
#     25470
#     53055
#     87297
# 
# Disc length: 1469
# 
# Revision: 0
# Processed by: cddbd v1.5.2PL0 Copyright (c) Steve Scherf et al.
# Submitted via: fre:ac v1.0.17
# 
DISCID=2a05bb04
DTITLE=CAPPELLA - CDM
DYEAR=1994
DGENRE=Eurodance
TTITLE0=CAPPELLA - MOVE IT UP - KM 1972 MIX
TTITLE1=CAPPELLA - MOVE IT UP - HOUSE MIX
TTITLE2=CAPPELLA - MOVE IT UP - PLUS STAPLES MIX
TTITLE3=CAPPELLA - CLUB MIX
EXTD=
EXTT0=
EXTT1=
EXTT2=
EXTT3=
PLAYORDER=
